<?xml version="1.0" encoding="UTF-8"?>
<svg viewBox="0 0 20.948 20.811" xmlns="http://www.w3.org/2000/svg">
<defs>
<clipPath id="d">
<path transform="translate(-.768 381.92)" d="M15.874-381.921h-1.13v1.768a1.306,1.306,0,0,1-1.306,1.306,1.306,1.306,0,0,1-1.306-1.306v-1.768H7.05v1.768a1.305,1.305,0,0,1-1.305,1.306,1.306,1.306,0,0,1-1.306-1.306v-1.768H3.309A2.541,2.541,0,0,0,.768-379.38v13.2a2.541,2.541,0,0,0,2.541,2.541h9.569a5.766,5.766,0,0,1-1.562-3.952A5.788,5.788,0,0,1,17.1-373.38a5.8,5.8,0,0,1,1.311.151v-6.151a2.541,2.541,0,0,0-2.541-2.541ZM8.179-367.893H2.745a.6.6,0,0,1-.6-.6.6.6,0,0,1,.6-.6H8.179a.6.6,0,0,1,.6.6A.6.6,0,0,1,8.179-367.893Zm0-3.864H2.745a.6.6,0,0,1-.6-.6.6.6,0,0,1,.6-.6H8.179a.6.6,0,0,1,.6.6A.6.6,0,0,1,8.179-371.757Zm8.259-4.13H2.745a.6.6,0,0,1-.6-.6.6.6,0,0,1,.6-.6H16.438a.6.6,0,0,1,.6.6A.6.6,0,0,1,16.438-375.887Z" fill="#084885" data-name="Path 2875"/>
</clipPath>
<clipPath id="c">
<path transform="translate(-85.458 419.63)" d="M87.011-416.242a.777.777,0,0,1-.777.777.777.777,0,0,1-.776-.777v-2.611a.777.777,0,0,1,.776-.776.777.777,0,0,1,.777.776Z" clip-rule="evenodd" fill="#084885" data-name="Path 2877"/>
</clipPath>
<clipPath id="b">
<path transform="translate(-240.58 419.63)" d="M242.135-416.242a.777.777,0,0,1-.776.777.776.776,0,0,1-.776-.777v-2.611a.776.776,0,0,1,.776-.776.776.776,0,0,1,.776.776Z" clip-rule="evenodd" fill="#084885" data-name="Path 2879"/>
</clipPath>
<clipPath id="a">
<path transform="translate(-237.15 186.02)" d="M241.758-186.02a4.612,4.612,0,0,0-4.611,4.612,4.611,4.611,0,0,0,4.611,4.611,4.612,4.612,0,0,0,4.612-4.611A4.612,4.612,0,0,0,241.758-186.02Zm1.766,5.5H241.4a.526.526,0,0,1-.2-.039l-.008,0a.545.545,0,0,1-.077-.042l-.013-.007a.493.493,0,0,1-.049-.041.363.363,0,0,1-.029-.024c-.009-.009-.016-.02-.024-.029a.489.489,0,0,1-.041-.049s0-.008-.007-.013a.5.5,0,0,1-.042-.078s0-.006,0-.008a.534.534,0,0,1-.039-.2v-2.123a.531.531,0,0,1,.531-.53.531.531,0,0,1,.53.53v1.592h1.592a.53.53,0,0,1,.53.53.53.53,0,0,1-.53.53Z" fill="#084885" data-name="Path 2881"/>
</clipPath>
</defs>
<g transform="translate(0)" data-name="Group 1503">
<g transform="translate(0 1.87)" clip-path="url(#d)" data-name="Group 1494">
<path transform="translate(3.984 386.67)" d="m-4.232-386.92h18.143v18.778h-18.143z" fill="#084885" data-name="Path 2874"/>
</g>
<g transform="translate(4.201)" clip-path="url(#c)" data-name="Group 1495">
<path transform="translate(-80.706 424.38)" d="m80.458-424.63h2.049v4.66h-2.049z" fill="#084885" data-name="Path 2876"/>
</g>
<g transform="translate(11.895)" clip-path="url(#b)" data-name="Group 1496">
<path transform="translate(-235.83 424.38)" d="m235.58-424.63h2.048v4.66h-2.048z" fill="#084885" data-name="Path 2878"/>
</g>
<g transform="translate(11.724 11.587)" clip-path="url(#a)" data-name="Group 1497">
<path transform="translate(-232.4 190.77)" d="m232.15-191.02h9.719v9.72h-9.719z" fill="#084885" data-name="Path 2880"/>
</g>
</g>
</svg>
