<?xml version="1.0" encoding="UTF-8"?>
<svg viewBox="0 0 25.759 20.343" xmlns="http://www.w3.org/2000/svg">
<defs>
<clipPath id="a">
<path transform="translate(-.474 387.9)" d="M13.341-387.9a.459.459,0,0,0-.261.081L.672-379.286h0a.459.459,0,0,0-.191.3.46.46,0,0,0,.074.343.459.459,0,0,0,.639.117l12.147-8.355,12.15,8.355a.459.459,0,0,0,.353.092.46.46,0,0,0,.309-.194.46.46,0,0,0,.07-.358.46.46,0,0,0-.213-.3L13.6-387.821a.46.46,0,0,0-.261-.081Zm0,2.131-9.223,6.345v11.41a.459.459,0,0,0,.457.457H8.391v-7.908a.46.46,0,0,1,.413-.458h9.029a.46.46,0,0,1,.458.458v7.908h3.814a.459.459,0,0,0,.458-.457v-11.412Zm-2.789,6.129h5.577a.459.459,0,0,1,.449.459.459.459,0,0,1-.449.459H10.552a.459.459,0,0,1-.449-.459.459.459,0,0,1,.449-.459Zm-1.243,4.636v7.447h8.064v-7.447Zm2.369,1.606H15a.459.459,0,0,1,.449.459.459.459,0,0,1-.449.459H11.677a.459.459,0,0,1-.449-.459A.459.459,0,0,1,11.677-373.4ZM11.63-371H15a.458.458,0,0,1,.331.131.459.459,0,0,1,.138.328.459.459,0,0,1-.138.328.46.46,0,0,1-.331.131H11.677a.46.46,0,0,1-.473-.436A.46.46,0,0,1,11.63-371Z" fill="#084885" data-name="Path 2873"/>
</clipPath>
</defs>
<g transform="translate(0)" data-name="Group 1491">
<g transform="translate(0)" clip-path="url(#a)" data-name="Group 1490">
<path transform="translate(4.264 392.64)" d="M-4.526-392.9H21.757v20.867H-4.526Z" fill="#084885" data-name="Path 2872"/>
</g>
</g>
</svg>
