<?xml version="1.0" encoding="UTF-8"?>
<svg viewBox="0 0 21.213 24.219" xmlns="http://www.w3.org/2000/svg">
<defs>
<clipPath id="a">
<path transform="translate(-.88 546.72)" d="M11.462-522.5H.88c.05-4.422-.124-6.756,2.732-7.8a23.141,23.141,0,0,0,4.148-2.012l2.012,6.334.273.869.894-2.559c-2.062-2.882.149-3.006.546-3.006.373,0,2.608.149.546,3.006l.894,2.534L13.2-526l2.012-6.309a24.312,24.312,0,0,0,4.148,2.012c2.856,1.043,2.683,3.4,2.732,7.8H11.462ZM7.438-545.1l1.118.795a4.873,4.873,0,0,1,1.49-.621l.224-1.366a.512.512,0,0,1,.522-.422h1.341a.532.532,0,0,1,.522.422l.224,1.366a5.351,5.351,0,0,1,1.466.6l1.118-.82a.526.526,0,0,1,.671.05l.944.944a.526.526,0,0,1,.05.671l-.795,1.118a6.339,6.339,0,0,1,.621,1.465l1.366.224a.558.558,0,0,1,.447.522v1.341a.532.532,0,0,1-.422.522l-1.366.224a5.352,5.352,0,0,1-.6,1.466l.795,1.118a.526.526,0,0,1-.05.671l-.944.944a.527.527,0,0,1-.72.124l-1.118-.8a5.2,5.2,0,0,1-1.441.6l-.224,1.366a.512.512,0,0,1-.522.422H10.816a.532.532,0,0,1-.522-.422l-.224-1.341a5.692,5.692,0,0,1-1.466-.6l-1.143.795a.526.526,0,0,1-.671-.05l-.944-.944a.526.526,0,0,1-.05-.671l.795-1.118a6.338,6.338,0,0,1-.621-1.465L4.606-538.2a.512.512,0,0,1-.422-.522v-1.341a.532.532,0,0,1,.422-.522l1.341-.224a5.689,5.689,0,0,1,.6-1.465l-.795-1.143a.526.526,0,0,1,.05-.671l.472-.5.472-.472a.561.561,0,0,1,.7-.05Zm1.167,5.837,2.136,2.136,3.577-3.577-1.093-1.068-2.484,2.484L9.7-540.335Z" fill="#084885" data-name="Path 2871"/>
</clipPath>
</defs>
<g transform="translate(0)" data-name="Group 1502">
<g transform="translate(0)" clip-path="url(#a)" data-name="Group 1487">
<path transform="translate(3.898 551.5)" d="M-4.12-551.719H17.537v24.662H-4.12Z" fill="#084885" data-name="Path 2870"/>
</g>
</g>
</svg>
