<?xml version="1.0" encoding="UTF-8"?>
<svg data-name="Group 1504" viewBox="0 0 20.6 20.794" xmlns="http://www.w3.org/2000/svg">
<defs>
<clipPath id="a">
<path transform="translate(0 482)" d="M19.724-479.334l-17.546,0a.606.606,0,0,1-.606-.606.606.606,0,0,1,.606-.605l15.256,0a.725.725,0,0,0,.725-.725.725.725,0,0,0-.725-.725H1.692A1.694,1.694,0,0,0,0-480.308v15.259a.875.875,0,0,0,.875.875h1.86a6.385,6.385,0,0,0,5.389,2.968,6.384,6.384,0,0,0,5.389-2.968h6.211a.875.875,0,0,0,.875-.875v-13.409a.875.875,0,0,0-.875-.875Zm-11.6,16.919a5.182,5.182,0,0,1-5.176-5.176,5.227,5.227,0,0,1,.04-.644,5.179,5.179,0,0,1,5.137-4.532,5.155,5.155,0,0,1,1.931.372,5.155,5.155,0,0,1,3.245,4.8,5.182,5.182,0,0,1-5.176,5.176Zm11.137-11.006h-4.74a1.622,1.622,0,0,1-1.622-1.622,1.622,1.622,0,0,1,1.622-1.623h4.74Zm-5.275-1.622a.7.7,0,0,0,.7.7.7.7,0,0,0,.7-.7.7.7,0,0,0-.7-.7A.7.7,0,0,0,13.986-475.043Z" fill="#084885" data-name="Path 2884"/>
</clipPath>
</defs>
<g transform="translate(7.493 11.594)" data-name="Group 1499">
<path transform="translate(8.4 8.4)" d="M-6.144-5.1H-8.037A.363.363,0,0,1-8.4-5.46V-8.037A.363.363,0,0,1-8.037-8.4a.363.363,0,0,1,.363.363v2.215h1.531a.363.363,0,0,1,.363.363A.363.363,0,0,1-6.144-5.1Z" fill="#084885" data-name="Path 2882"/>
</g>
<g transform="translate(0)" clip-path="url(#a)" data-name="Group 1500">
<path transform="translate(4.784 486.78)" d="M-5-487H16.031v21.225H-5Z" fill="#084885" data-name="Path 2883"/>
</g>
</svg>
